HIERARCHY
ROOT Hips
{
	OFFSET 0.000000 0.000000 0.000000
	CHANNELS 6 Xposition Yposition Zposition Xrotation Yrotation Zrotation
	JOINT LeftUpLeg_virtual
	{
		OFFSET 0.000000 0.000000 0.000000
		CHANNELS 3 Xrotation Yrotation Zrotation
		JOINT LeftUpLeg
		{
			OFFSET 15.427100 -6.655098 0.678600
			CHANNELS 3 Xrotation Yrotation Zrotation
			JOINT LeftLeg
			{
				OFFSET 4.081073 -39.591068 13.024000
				CHANNELS 3 Xrotation Yrotation Zrotation
				JOINT LeftFoot
				{
					OFFSET -4.081074 -37.707932 -15.979700
					CHANNELS 3 Xrotation Yrotation Zrotation
					JOINT LeftToeBase
					{
						OFFSET 5.346399 -15.068900 20.645000
						CHANNELS 3 Xrotation Yrotation Zrotation
						JOINT LeftToe_End
						{
							OFFSET 2.754700 0.931300 11.300900
							CHANNELS 3 Xrotation Yrotation Zrotation
							End Site
							{
								OFFSET 0 0 0
							}
						}
					}
				}
			}
		}
	}
	JOINT RightUpLeg_virtual
	{
		OFFSET 0.000000 0.000000 0.000000
		CHANNELS 3 Xrotation Yrotation Zrotation
		JOINT RightUpLeg
		{
			OFFSET -15.569500 -6.655098 0.678600
			CHANNELS 3 Xrotation Yrotation Zrotation
			JOINT RightLeg
			{
				OFFSET -4.081825 -39.591045 13.023800
				CHANNELS 3 Xrotation Yrotation Zrotation
				JOINT RightFoot
				{
					OFFSET 4.081824 -37.707954 -15.979600
					CHANNELS 3 Xrotation Yrotation Zrotation
					JOINT RightToeBase
					{
						OFFSET -5.346400 -15.068900 20.645000
						CHANNELS 3 Xrotation Yrotation Zrotation
						JOINT RightToe_End
						{
							OFFSET -2.754700 0.931300 11.300900
							CHANNELS 3 Xrotation Yrotation Zrotation
							End Site
							{
								OFFSET 0 0 0
							}
						}
					}
				}
			}
		}
	}
	JOINT Spine_virtual
	{
		OFFSET 0.000000 0.000000 0.000000
		CHANNELS 3 Xrotation Yrotation Zrotation
		JOINT Spine
		{
			OFFSET -0.279200 12.230698 -2.892100
			CHANNELS 3 Xrotation Yrotation Zrotation
			JOINT Spine1
			{
				OFFSET -0.232667 10.192268 -1.242267
				CHANNELS 3 Xrotation Yrotation Zrotation
				JOINT Spine1_split
				{
					OFFSET -0.232667 10.192268 -1.242267
					CHANNELS 3 Xrotation Yrotation Zrotation
					JOINT Spine2
					{
						OFFSET -0.232667 10.192268 -1.242267
						CHANNELS 3 Xrotation Yrotation Zrotation
						JOINT Neck_virtual
						{
							OFFSET 0.000000 0.000000 0.000000
							CHANNELS 3 Xrotation Yrotation Zrotation
							JOINT Neck
							{
								OFFSET -0.418800 17.814194 8.416900
								CHANNELS 3 Xrotation Yrotation Zrotation
								JOINT Head
								{
									OFFSET 0.000000 7.031097 3.806800
									CHANNELS 3 Xrotation Yrotation Zrotation
									JOINT HeadTop_End
									{
										OFFSET 0.000000 24.646606 12.978600
										CHANNELS 3 Xrotation Yrotation Zrotation
										End Site
										{
											OFFSET 0 0 0
										}
									}
								}
							}
						}
						JOINT LeftShoulder_virtual
						{
							OFFSET 0.000000 0.000000 0.000000
							CHANNELS 3 Xrotation Yrotation Zrotation
							JOINT LeftShoulder
							{
								OFFSET 8.476499 7.247704 -3.868750
								CHANNELS 3 Xrotation Yrotation Zrotation
								JOINT LeftShoulder_split
								{
									OFFSET 8.476499 7.247704 -3.868750
									CHANNELS 3 Xrotation Yrotation Zrotation
									JOINT LeftArm
									{
										OFFSET 9.308998 -2.777710 0.208600
										CHANNELS 3 Xrotation Yrotation Zrotation
										JOINT LeftForeArm
										{
											OFFSET 29.972298 0.000000 0.000000
											CHANNELS 3 Xrotation Yrotation Zrotation
											JOINT LeftHand
											{
												OFFSET 26.026505 0.000000 0.000000
												CHANNELS 3 Xrotation Yrotation Zrotation
												End Site
												{
													OFFSET 0 0 0
												}
											}
										}
									}
								}
							}
						}
						JOINT RightShoulder_virtual
						{
							OFFSET 0.000000 0.000000 0.000000
							CHANNELS 3 Xrotation Yrotation Zrotation
							JOINT RightShoulder
							{
								OFFSET -7.570500 7.247704 -3.868750
								CHANNELS 3 Xrotation Yrotation Zrotation
								JOINT RightShoulder_split
								{
									OFFSET -7.570500 7.247704 -3.868750
									CHANNELS 3 Xrotation Yrotation Zrotation
									JOINT RightArm
									{
										OFFSET -9.308998 -2.777710 0.208500
										CHANNELS 3 Xrotation Yrotation Zrotation
										JOINT RightForeArm
										{
											OFFSET -29.972300 0.000000 0.000000
											CHANNELS 3 Xrotation Yrotation Zrotation
											JOINT RightHand
											{
												OFFSET -26.026505 0.000000 0.000000
												CHANNELS 3 Xrotation Yrotation Zrotation
												End Site
												{
													OFFSET 0 0 0
												}
											}
										}
									}
								}
							}
						}
					}
				}
			}
		}
	}
}
MOTION
Frames: 5
Frame Time: 0.03333333
0.631389 10.204788 0.371078 0.000000 0.000000 0.000000 -90.289152 -3.728225 -3.327457 -21.016330 12.343670 -3.656247 28.331217 -7.957271 -7.759150 1.919096 7.128068 7.055053 9.615714 -0.376974 2.366031 0.000000 0.000000 0.000000 -91.667819 -4.603269 -6.944056 -8.097659 -7.263396 -4.607153 18.304620 0.090073 9.684470 7.490044 -4.825753 25.276512 0.307916 -0.333079 0.312406 0.000000 0.000000 0.000000 -88.018865 -4.570627 -6.251682 4.493318 2.744293 2.249165 -1.384821 1.021599 -0.053590 0.416237 0.657480 -0.271321 0.000000 0.000000 0.000000 -1.995707 0.469622 0.247482 2.508407 0.830244 -0.114237 10.579387 -5.270268 10.440975 0.000000 0.000000 0.000000 -2.761940 1.052146 0.203597 0.989496 -14.002551 -3.546936 -2.758354 -0.122216 -3.982721 27.291192 0.235720 -69.236992 -178.914292 -39.074720 -178.237652 0.000000 0.000000 0.000000 -2.013818 0.723474 -0.738493 0.979818 2.144719 0.533654 0.804993 4.153880 0.425897 12.069626 7.409398 73.158709 -179.868128 46.113025 -179.365822 0.000000 0.000000 0.000000 
0.632122 10.204025 0.371906 0.000000 0.000000 0.000000 -90.287765 -3.728683 -3.327672 -21.019064 12.341291 -3.657700 28.333377 -7.956142 -7.759149 1.920374 7.128427 7.053128 9.615531 -0.377176 2.365251 0.000000 0.000000 0.000000 -91.664998 -4.600654 -6.940444 -8.097099 -7.267217 -4.609062 18.303075 0.090839 9.685715 7.492066 -4.827898 25.274949 0.306461 -0.333420 0.312952 0.000000 0.000000 0.000000 -88.017636 -4.571440 -6.253603 4.494521 2.743732 2.248804 -1.386615 1.021348 -0.053674 0.417567 0.665118 -0.272705 0.000000 0.000000 0.000000 -1.997045 0.468737 0.246863 2.504815 0.829522 -0.114875 10.580983 -5.269628 10.438251 0.000000 0.000000 0.000000 -2.765300 1.052440 0.202724 0.991492 -14.002491 -3.540564 -2.761676 -0.122418 -3.992142 27.293614 0.242085 -69.245878 -178.910235 -39.063143 -178.233199 0.000000 0.000000 0.000000 -2.015370 0.723270 -0.738994 0.977593 2.142090 0.529547 0.814924 4.159890 0.424586 12.077289 7.406928 73.158286 -179.869111 46.095239 -179.365890 0.000000 0.000000 0.000000 
0.632499 10.202015 0.373158 0.000000 0.000000 0.000000 -90.284767 -3.728157 -3.327326 -21.024910 12.339707 -3.658519 28.340608 -7.954694 -7.759679 1.920257 7.128818 7.052654 9.615688 -0.377135 2.365671 0.000000 0.000000 0.000000 -91.660237 -4.596711 -6.935789 -8.096746 -7.275076 -4.610559 18.301263 0.088471 9.687105 7.492011 -4.835151 25.267696 0.309988 -0.334039 0.315258 0.000000 0.000000 0.000000 -88.015505 -4.572663 -6.256015 4.494430 2.741274 2.250101 -1.388764 1.020832 -0.054962 0.416559 0.670853 -0.274575 0.000000 0.000000 0.000000 -1.997302 0.468399 0.245030 2.503728 0.830657 -0.112676 10.581754 -5.270550 10.439901 0.000000 0.000000 0.000000 -2.768526 1.052863 0.201871 0.994804 -14.002618 -3.520078 -2.763171 -0.120536 -4.000609 27.299351 0.255064 -69.264559 -178.905713 -39.046443 -178.229483 0.000000 0.000000 0.000000 -2.017754 0.722687 -0.740172 0.975358 2.136051 0.522397 0.827620 4.172349 0.424820 12.087404 7.406797 73.159652 -179.867390 46.077921 -179.365562 0.000000 0.000000 0.000000 
0.632566 10.199257 0.374489 0.000000 0.000000 0.000000 -90.280177 -3.727559 -3.326726 -21.031908 12.338892 -3.659320 28.350543 -7.952978 -7.760085 1.918572 7.129401 7.052754 9.615142 -0.376916 2.367275 0.000000 0.000000 0.000000 -91.653496 -4.592475 -6.930735 -8.098004 -7.285540 -4.612319 18.298954 0.084782 9.688616 7.492015 -4.845051 25.258147 0.317510 -0.334689 0.318300 0.000000 0.000000 0.000000 -88.012841 -4.574313 -6.258360 4.492398 2.737269 2.252767 -1.391217 1.019958 -0.056671 0.415534 0.673840 -0.275077 0.000000 0.000000 0.000000 -1.996496 0.468790 0.242833 2.505380 0.833522 -0.108780 10.579600 -5.274484 10.445641 0.000000 0.000000 0.000000 -2.771503 1.053725 0.201695 0.998376 -14.000835 -3.493632 -2.766911 -0.118998 -4.005439 27.305688 0.270704 -69.284592 -178.901765 -39.032243 -178.226287 0.000000 0.000000 0.000000 -2.020945 0.721968 -0.741349 0.973252 2.128152 0.514756 0.840016 4.187518 0.426327 12.098625 7.406794 73.159461 -179.862978 46.065811 -179.365658 0.000000 0.000000 0.000000 
0.632394 10.196217 0.375423 0.000000 0.000000 0.000000 -90.273859 -3.727763 -3.326283 -21.037678 12.338195 -3.660610 28.359780 -7.950965 -7.759657 1.915122 7.130245 7.053376 9.613155 -0.376622 2.369643 0.000000 0.000000 0.000000 -91.645224 -4.588674 -6.925545 -8.101519 -7.297278 -4.614214 18.295640 0.082222 9.689979 7.492903 -4.854738 25.250055 0.325405 -0.335317 0.320802 0.000000 0.000000 0.000000 -88.009159 -4.575904 -6.259496 4.488381 2.732347 2.256858 -1.394004 1.019000 -0.057932 0.416998 0.671746 -0.274005 0.000000 0.000000 0.000000 -1.994811 0.470092 0.241352 2.508565 0.837628 -0.104596 10.572062 -5.280416 10.454083 0.000000 0.000000 0.000000 -2.773777 1.055256 0.202674 1.001246 -13.993375 -3.471160 -2.771972 -0.120754 -4.010127 27.310296 0.284004 -69.296429 -178.899088 -39.024009 -178.223719 0.000000 0.000000 0.000000 -2.024206 0.721530 -0.741726 0.971474 2.121207 0.508820 0.849245 4.205150 0.426242 12.108480 7.405785 73.154584 -179.856352 46.059616 -179.366792 0.000000 0.000000 0.000000 
